<?xml version="1.0" standalone="no"?>
<!DOCTYPE svg PUBLIC "-//W3C//DTD SVG 20010904//EN"
 "http://www.w3.org/TR/2001/REC-SVG-20010904/DTD/svg10.dtd">
<svg version="1.0" xmlns="http://www.w3.org/2000/svg"
 width="700.000000pt" height="700.000000pt" viewBox="0 0 700.000000 700.000000"
 preserveAspectRatio="xMidYMid meet">
<metadata>
Created by potrace 1.14, written by Peter Selinger 2001-2017
</metadata>
<g transform="translate(0.000000,700.000000) scale(0.100000,-0.100000)"
fill="#000000" stroke="none">
<path d="M437 3398 c1 -898 2 -1636 2 -1640 1 -10 681 -10 682 0 0 4 2 309 2
677 l2 670 658 0 c431 0 657 3 658 10 1 14 1 526 0 546 -1 14 -64 16 -643 17
-354 0 -650 1 -659 1 -13 1 -15 44 -15 389 l0 387 731 5 730 5 0 283 1 282
-1076 0 -1075 0 2 -1632z"/>
<path d="M3048 5023 c-3 -7 -2 -3242 1 -3265 1 -5 150 -8 331 -8 l330 0 0
1069 c0 904 2 1070 14 1074 9 4 19 -9 31 -41 9 -26 23 -62 31 -79 8 -18 21
-51 29 -73 8 -22 21 -55 29 -73 8 -17 50 -124 94 -237 139 -357 453 -1154 466
-1185 8 -16 49 -120 91 -230 43 -110 80 -202 82 -205 5 -5 433 -7 451 -2 6 2
12 8 12 13 0 7 264 684 291 744 5 11 41 101 80 200 115 290 336 847 401 1013
35 90 65 151 72 149 8 -3 11 -277 13 -1063 1 -582 2 -1062 2 -1066 1 -5 150
-8 331 -8 182 0 330 3 331 8 0 4 1 742 2 1640 l2 1632 -425 0 -425 0 -85 -213
c-46 -116 -87 -216 -90 -222 -4 -5 -15 -32 -25 -60 -10 -27 -26 -68 -35 -90
-10 -22 -45 -107 -78 -190 -33 -82 -75 -184 -92 -225 -17 -41 -33 -79 -34 -85
-2 -5 -8 -21 -13 -35 -6 -14 -34 -83 -62 -155 -29 -71 -56 -139 -62 -150 -11
-25 -226 -555 -276 -682 -30 -77 -40 -93 -58 -93 -22 0 -3 -44 -345 800 -48
118 -149 368 -225 555 -75 187 -143 354 -150 370 -7 17 -36 89 -64 160 -29 72
-56 139 -61 150 -5 11 -22 52 -38 90 l-29 70 -421 3 c-231 1 -422 -1 -424 -5z"/>
</g>
</svg>
